<?xml version="1.0" encoding="utf-8"?>
<!-- Generator: Adobe Illustrator 23.0.1, SVG Export Plug-In . SVG Version: 6.00 Build 0)  -->
<svg version="1.1" id="Camada_1" xmlns="http://www.w3.org/2000/svg" xmlns:xlink="http://www.w3.org/1999/xlink" x="0px" y="0px"
	 viewBox="0 0 55.1 101.1" style="enable-background:new 0 0 55.1 101.1;" xml:space="preserve">
<style type="text/css">
	.st0{fill:#C13715;}
	.st1{fill:#DDDDDD;}
	.st2{fill:#3F9941;}
</style>
<polygon class="st0" points="0,43.7 0,11.5 4.6,6.9 9.2,11.5 9.2,43.7 4.6,48.2 "/>
<polygon class="st0" points="0,89.6 0,57.5 4.6,52.9 9.2,57.5 9.2,89.6 4.6,94.2 "/>
<polygon class="st0" points="6.9,4.6 11.5,0 43.7,0 48.2,4.6 43.7,9.2 11.5,9.2 "/>
<polygon class="st0" points="6.9,50.6 11.5,46 43.7,46 48.2,50.6 43.7,55.1 11.5,55.1 "/>
<polygon class="st0" points="6.9,96.5 11.5,91.9 43.7,91.9 48.2,96.5 43.7,101.1 11.5,101.1 "/>
<polygon class="st0" points="46,43.7 46,11.5 50.6,6.9 55.1,11.5 55.1,43.7 50.6,48.2 "/>
<polygon class="st0" points="46,89.6 46,57.5 50.6,52.9 55.1,57.5 55.1,89.6 50.6,94.2 "/>
</svg>
